<svg id="Layer_1" data-name="Layer 1" xmlns="http://www.w3.org/2000/svg" viewBox="0 0 512 467.2"><defs><style>.cls-1{fill:#013964;}</style></defs><title>logout</title><path class="cls-1" d="M505.7,243.7l-54.8-38.6a15,15,0,0,0-23.6,12.3V241h-263a15,15,0,0,0,0,30h263v23.6a15,15,0,0,0,23.6,12.3l54.8-38.6A15.16,15.16,0,0,0,505.7,243.7Z" transform="translate(0 -22.4)"/><path class="cls-1" d="M430.5,352.3a15,15,0,0,0-20.5,5.5A203.56,203.56,0,0,1,233.6,459.6C121.3,459.6,30,368.3,30,256S121.3,52.4,233.6,52.4A203.56,203.56,0,0,1,410,154.2a15,15,0,0,0,26-15A233.72,233.72,0,0,0,233.6,22.4C104.5,22.4,0,126.9,0,256S104.5,489.6,233.6,489.6A233.52,233.52,0,0,0,435.9,372.8,15,15,0,0,0,430.5,352.3Z" transform="translate(0 -22.4)"/></svg>